<?xml version="1.0" encoding="UTF-8" standalone="no"?>
<svg
   width="16"
   height="16"
   version="1.1"
   id="svg1"
   sodipodi:docname="PathScene3D.svg"
   inkscape:version="1.4-rc1 (61ec3f2, 2024-09-26)"
   xmlns:inkscape="http://www.inkscape.org/namespaces/inkscape"
   xmlns:sodipodi="http://sodipodi.sourceforge.net/DTD/sodipodi-0.dtd"
   xmlns="http://www.w3.org/2000/svg"
   xmlns:svg="http://www.w3.org/2000/svg">
  <defs
     id="defs1">
    <inkscape:path-effect
       effect="powermask"
       id="path-effect3"
       is_visible="true"
       lpeversion="1"
       uri="#mask-powermask-path-effect3"
       invert="false"
       hide_mask="false"
       background="true"
       background_color="#ffffffff" />
    <inkscape:path-effect
       effect="powermask"
       id="path-effect2"
       is_visible="true"
       lpeversion="1"
       uri="#mask-powermask-path-effect3"
       invert="false"
       hide_mask="false"
       background="true"
       background_color="#ffffffff" />
    <mask
       maskUnits="userSpaceOnUse"
       id="mask-powermask-path-effect2" />
    <filter
       id="mask-powermask-path-effect2_inverse"
       inkscape:label="filtermask-powermask-path-effect2"
       style="color-interpolation-filters:sRGB"
       height="100"
       width="100"
       x="-50"
       y="-50">
      <feColorMatrix
         id="mask-powermask-path-effect2_primitive1"
         values="1"
         type="saturate"
         result="fbSourceGraphic" />
      <feColorMatrix
         id="mask-powermask-path-effect2_primitive2"
         values="-1 0 0 0 1 0 -1 0 0 1 0 0 -1 0 1 0 0 0 1 0 "
         in="fbSourceGraphic" />
    </filter>
    <mask
       maskUnits="userSpaceOnUse"
       id="mask-powermask-path-effect3">
      <path
         id="mask-powermask-path-effect3_box"
         style="fill:#ffffff;fill-opacity:1"
         d="M 3.4441753e-8,1 H 15.991804 V 17.003511 H 3.4441753e-8 Z" />
      <path
         id="mask-powermask-path-effect2_box"
         style="fill:#ffffff;fill-opacity:1"
         d="M 3.4441753e-8,1 H 15.991804 V 17.003511 H 3.4441753e-8 Z" />
      <rect
         style="fill:#000000;fill-opacity:1;stroke:none;stroke-width:1.07679;stroke-linejoin:round;stroke-opacity:1"
         id="rect2"
         width="7.9852705"
         height="7.264925"
         x="3.7152758"
         y="4.7409606"
         d="M 3.7152758,4.7409606 H 11.700546 V 12.005886 H 3.7152758 Z" />
    </mask>
    <filter
       id="mask-powermask-path-effect3_inverse"
       inkscape:label="filtermask-powermask-path-effect3"
       style="color-interpolation-filters:sRGB"
       height="100"
       width="100"
       x="-50"
       y="-50">
      <feColorMatrix
         id="mask-powermask-path-effect3_primitive1"
         values="1"
         type="saturate"
         result="fbSourceGraphic" />
      <feColorMatrix
         id="mask-powermask-path-effect3_primitive2"
         values="-1 0 0 0 1 0 -1 0 0 1 0 0 -1 0 1 0 0 0 1 0 "
         in="fbSourceGraphic" />
    </filter>
  </defs>
  <sodipodi:namedview
     id="namedview1"
     pagecolor="#505050"
     bordercolor="#ffffff"
     borderopacity="1"
     inkscape:showpageshadow="0"
     inkscape:pageopacity="0"
     inkscape:pagecheckerboard="1"
     inkscape:deskcolor="#505050"
     inkscape:zoom="57.90625"
     inkscape:cx="6.4759849"
     inkscape:cy="7.7280086"
     inkscape:window-width="3840"
     inkscape:window-height="2071"
     inkscape:window-x="-9"
     inkscape:window-y="-9"
     inkscape:window-maximized="1"
     inkscape:current-layer="svg1" />
  <path
     fill="#e0e0e0"
     d="m 11.189543,4 -1.164609,0.1702281 0.424532,0.9860774 0.890064,-0.129747 z M 8.9978557,4.3191777 7.9712972,4.4696842 8.3958295,5.4567996 9.422907,5.3062931 Z M 6.9431817,4.6191528 5.9166232,4.7696594 6.3411555,5.7567748 7.368233,5.6062682 Z M 4.8895457,4.9191279 4,5.048875 4.1499876,6.0759525 5.3145969,5.9057244 Z M 4.1499876,6.5949406 V 9.7088698 A 1.0379763,1.0379763 0 0 0 5.1879638,10.746846 H 11.415822 V 6.5949406 Z"
     id="path1"
     style="stroke-width:0.518988" />
  <path
     fill="#fc7f7f"
     d="m 12.99971,2 a 2,2 0 0 0 -1.15,3.633 c -0.193,0.885 -0.554,1.34 -0.987,1.642 -0.644,0.451 -1.7129999,0.606 -2.9629999,0.73 -1.25,0.124 -2.681,0.221 -3.912,1.083 -0.892,0.625 -1.532,1.652 -1.818,3.096 a 2,2 0 1 0 1.98,0.183 c 0.193,-0.885 0.553,-1.337 0.987,-1.64 0.644,-0.451 1.713,-0.606 2.963,-0.73 1.25,-0.124 2.6809999,-0.221 3.9119999,-1.083 0.892,-0.625 1.532,-1.654 1.818,-3.098 A 2,2 0 0 0 12.99971,2 Z"
     id="path1-7"
     mask="url(#mask-powermask-path-effect3)"
     inkscape:path-effect="#path-effect2;#path-effect3"
     inkscape:original-d="m 12.99971,2 a 2,2 0 0 0 -1.15,3.633 c -0.193,0.885 -0.554,1.34 -0.987,1.642 -0.644,0.451 -1.7129999,0.606 -2.9629999,0.73 -1.25,0.124 -2.681,0.221 -3.912,1.083 -0.892,0.625 -1.532,1.652 -1.818,3.096 a 2,2 0 1 0 1.98,0.183 c 0.193,-0.885 0.553,-1.337 0.987,-1.64 0.644,-0.451 1.713,-0.606 2.963,-0.73 1.25,-0.124 2.6809999,-0.221 3.9119999,-1.083 0.892,-0.625 1.532,-1.654 1.818,-3.098 A 2,2 0 0 0 12.99971,2 Z"
     transform="translate(-3.4441753e-8,-1)" />
</svg>
