<?xml version="1.0" encoding="UTF-8" standalone="no"?>
<svg
   width="16"
   height="16"
   version="1.1"
   id="svg1"
   sodipodi:docname="PathMultiMesh3D.svg"
   inkscape:version="1.4-rc1 (61ec3f2, 2024-09-26)"
   xmlns:inkscape="http://www.inkscape.org/namespaces/inkscape"
   xmlns:sodipodi="http://sodipodi.sourceforge.net/DTD/sodipodi-0.dtd"
   xmlns="http://www.w3.org/2000/svg"
   xmlns:svg="http://www.w3.org/2000/svg">
  <defs
     id="defs1">
    <inkscape:path-effect
       effect="powermask"
       id="path-effect2"
       is_visible="true"
       lpeversion="1"
       uri="#mask-powermask-path-effect2"
       invert="false"
       hide_mask="false"
       background="true"
       background_color="#ffffffff" />
    <filter
       id="mask-powermask-path-effect2_inverse"
       inkscape:label="filtermask-powermask-path-effect2"
       style="color-interpolation-filters:sRGB"
       height="100"
       width="100"
       x="-50"
       y="-50">
      <feColorMatrix
         id="mask-powermask-path-effect2_primitive1"
         values="1"
         type="saturate"
         result="fbSourceGraphic" />
      <feColorMatrix
         id="mask-powermask-path-effect2_primitive2"
         values="-1 0 0 0 1 0 -1 0 0 1 0 0 -1 0 1 0 0 0 1 0 "
         in="fbSourceGraphic" />
    </filter>
    <mask
       maskUnits="userSpaceOnUse"
       id="mask-powermask-path-effect2">
      <path
         id="mask-powermask-path-effect2_box"
         style="fill:#ffffff;fill-opacity:1"
         d="M 3.4441753e-8,0 H 15.991804 V 16.003511 H 3.4441753e-8 Z" />
      <rect
         style="fill:#000000;stroke-width:1.02955;stroke-linejoin:round"
         id="rect2"
         width="8.5084543"
         height="8.5084543"
         x="4"
         y="4"
         d="m 4,4 h 8.508454 v 8.508454 H 4 Z" />
    </mask>
  </defs>
  <sodipodi:namedview
     id="namedview1"
     pagecolor="#505050"
     bordercolor="#ffffff"
     borderopacity="1"
     inkscape:showpageshadow="0"
     inkscape:pageopacity="0"
     inkscape:pagecheckerboard="1"
     inkscape:deskcolor="#505050"
     inkscape:zoom="40.945902"
     inkscape:cx="8.291428"
     inkscape:cy="12.956119"
     inkscape:window-width="1918"
     inkscape:window-height="2061"
     inkscape:window-x="-8"
     inkscape:window-y="0"
     inkscape:window-maximized="0"
     inkscape:current-layer="svg1" />
  <path
     fill="#fc7f7f"
     d="M 6.4225072,4.9189017 C 5.7518456,3.7497689 3.7497689,5.7518456 4.9189017,6.4225072 v 3.6025948 c -1.1691321,0.670662 0.8329432,2.672738 1.5036055,1.503606 H 7.1219867 V 10.427165 H 6.4225072 C 6.3259817,10.260267 6.1873418,10.121627 6.0204442,10.025102 V 6.8119025 L 7.983393,8.7748513 H 8.7743005 V 7.9839437 L 6.8113517,6.020995 h 3.2131993 c 0.09652,0.1668976 0.235165,0.3055375 0.402063,0.402063 v 0.6989287 h 1.101543 V 6.423058 C 12.696526,5.752066 10.69597,3.7507779 10.024551,4.9189017 Z"
     id="path1"
     style="stroke-width:0.550771"
     sodipodi:nodetypes="cccccccccccccccccccc" />
  <path
     fill="#fc7f7f"
     d="m 12.99971,1 a 2,2 0 0 0 -1.15,3.633 c -0.193,0.885 -0.554,1.34 -0.987,1.642 -0.644,0.451 -1.7129999,0.606 -2.9629999,0.73 -1.25,0.124 -2.681,0.221 -3.912,1.083 -0.892,0.625 -1.532,1.652 -1.818,3.096 a 2,2 0 1 0 1.98,0.183 c 0.193,-0.885 0.553,-1.337 0.987,-1.64 0.644,-0.451 1.713,-0.606 2.963,-0.73 1.25,-0.124 2.6809999,-0.221 3.9119999,-1.083 0.892,-0.625 1.532,-1.654 1.818,-3.098 A 2,2 0 0 0 12.99971,1 Z"
     id="path1-7"
     mask="url(#mask-powermask-path-effect2)"
     inkscape:path-effect="#path-effect2"
     inkscape:original-d="m 12.99971,1 a 2,2 0 0 0 -1.15,3.633 c -0.193,0.885 -0.554,1.34 -0.987,1.642 -0.644,0.451 -1.7129999,0.606 -2.9629999,0.73 -1.25,0.124 -2.681,0.221 -3.912,1.083 -0.892,0.625 -1.532,1.652 -1.818,3.096 a 2,2 0 1 0 1.98,0.183 c 0.193,-0.885 0.553,-1.337 0.987,-1.64 0.644,-0.451 1.713,-0.606 2.963,-0.73 1.25,-0.124 2.6809999,-0.221 3.9119999,-1.083 0.892,-0.625 1.532,-1.654 1.818,-3.098 A 2,2 0 0 0 12.99971,1 Z" />
  <path
     d="m 9.8757328,8.0281495 v 1.6523138 h -1.652314 v 1.1015427 h 1.652314 v 1.652313 h 1.1015432 v -1.652313 h 1.652313 V 9.6804633 H 10.977276 V 8.0281495 Z"
     style="fill:#cccccc;stroke-width:0.550771;fill-opacity:1"
     id="path1-1" />
</svg>
