<?xml version="1.0" encoding="UTF-8" standalone="no"?>
<svg
   width="16"
   height="16"
   version="1.1"
   id="svg1"
   sodipodi:docname="PathStaticBody3D.svg"
   inkscape:version="1.4-rc1 (61ec3f2, 2024-09-26)"
   xmlns:inkscape="http://www.inkscape.org/namespaces/inkscape"
   xmlns:sodipodi="http://sodipodi.sourceforge.net/DTD/sodipodi-0.dtd"
   xmlns="http://www.w3.org/2000/svg"
   xmlns:svg="http://www.w3.org/2000/svg">
  <defs
     id="defs1">
    <inkscape:path-effect
       effect="powermask"
       id="path-effect2"
       is_visible="true"
       lpeversion="1"
       uri="#mask-powermask-path-effect2"
       invert="false"
       hide_mask="false"
       background="true"
       background_color="#ffffffff" />
    <mask
       maskUnits="userSpaceOnUse"
       id="mask-powermask-path-effect2">
      <path
         id="mask-powermask-path-effect2_box"
         style="fill:#ffffff;fill-opacity:1"
         d="M 3.4441753e-8,0 H 15.991804 V 16.003511 H 3.4441753e-8 Z" />
      <rect
         style="fill:#000000;stroke-width:1.11548;stroke-linejoin:round"
         id="rect2"
         width="8.6923332"
         height="8.7284975"
         x="3.6660445"
         y="3.6662793"
         ry="0"
         d="M 3.6660445,3.6662793 H 12.358378 V 12.394777 H 3.6660445 Z" />
    </mask>
    <filter
       id="mask-powermask-path-effect2_inverse"
       inkscape:label="filtermask-powermask-path-effect2"
       style="color-interpolation-filters:sRGB"
       height="100"
       width="100"
       x="-50"
       y="-50">
      <feColorMatrix
         id="mask-powermask-path-effect2_primitive1"
         values="1"
         type="saturate"
         result="fbSourceGraphic" />
      <feColorMatrix
         id="mask-powermask-path-effect2_primitive2"
         values="-1 0 0 0 1 0 -1 0 0 1 0 0 -1 0 1 0 0 0 1 0 "
         in="fbSourceGraphic" />
    </filter>
  </defs>
  <sodipodi:namedview
     id="namedview1"
     pagecolor="#505050"
     bordercolor="#ffffff"
     borderopacity="1"
     inkscape:showpageshadow="0"
     inkscape:pageopacity="0"
     inkscape:pagecheckerboard="1"
     inkscape:deskcolor="#505050"
     inkscape:zoom="28.953125"
     inkscape:cx="6.4414463"
     inkscape:cy="9.3426875"
     inkscape:window-width="1918"
     inkscape:window-height="2061"
     inkscape:window-x="-8"
     inkscape:window-y="0"
     inkscape:window-maximized="0"
     inkscape:current-layer="svg1" />
  <path
     fill="#fc7f7f"
     d="M 5.2272107,4.118095 A 1.1091157,1.1091157 0 0 0 4.118095,5.2272107 v 5.5455783 a 1.1091157,1.1091157 0 0 0 1.1091157,1.109116 h 5.5455783 a 1.1091157,1.1091157 0 0 0 1.109116,-1.109116 V 5.2272107 A 1.1091157,1.1091157 0 0 0 10.772789,4.118095 Z m 0,0.5545578 h 5.5455783 a 0.55455786,0.55455786 0 0 1 0.554558,0.5545579 v 5.5455783 a 0.55455786,0.55455786 0 0 1 -0.554558,0.554558 H 5.2272107 A 0.55455786,0.55455786 0 0 1 4.6726528,10.772789 V 5.2272107 A 0.55455786,0.55455786 0 0 1 5.2272107,4.6726528 Z m 0,0.5545579 V 6.3363264 H 6.3363264 V 5.2272107 Z m 4.4364629,0 V 6.3363264 H 10.772789 V 5.2272107 Z M 5.2272107,9.6636736 V 10.772789 H 6.3363264 V 9.6636736 Z m 4.4364629,0 V 10.772789 H 10.772789 V 9.6636736 Z"
     id="path1"
     style="stroke-width:0.554558" />
  <path
     fill="#fc7f7f"
     d="m 12.99971,1 a 2,2 0 0 0 -1.15,3.633 c -0.193,0.885 -0.554,1.34 -0.987,1.642 -0.644,0.451 -1.713,0.606 -2.9629999,0.73 -1.25,0.124 -2.681,0.221 -3.912,1.083 -0.892,0.625 -1.532,1.652 -1.818,3.096 a 2,2 0 1 0 1.98,0.183 c 0.193,-0.885 0.553,-1.337 0.987,-1.64 0.644,-0.451 1.713,-0.606 2.963,-0.73 C 9.34971,8.873 10.78071,8.776 12.01171,7.914 c 0.892,-0.625 1.532,-1.654 1.818,-3.098 A 2,2 0 0 0 12.99971,1 Z"
     id="path1-5"
     mask="url(#mask-powermask-path-effect2)"
     inkscape:path-effect="#path-effect2"
     inkscape:original-d="m 12.99971,1 a 2,2 0 0 0 -1.15,3.633 c -0.193,0.885 -0.554,1.34 -0.987,1.642 -0.644,0.451 -1.713,0.606 -2.9629999,0.73 -1.25,0.124 -2.681,0.221 -3.912,1.083 -0.892,0.625 -1.532,1.652 -1.818,3.096 a 2,2 0 1 0 1.98,0.183 c 0.193,-0.885 0.553,-1.337 0.987,-1.64 0.644,-0.451 1.713,-0.606 2.963,-0.73 C 9.34971,8.873 10.78071,8.776 12.01171,7.914 c 0.892,-0.625 1.532,-1.654 1.818,-3.098 A 2,2 0 0 0 12.99971,1 Z" />
</svg>
