# Blender 5.0.1
# www.blender.org
mtllib Caños_3_End.mtl
o Caños_1.003
v -2.900404 -0.694353 -0.000000
v -2.892426 -0.644194 -0.000000
v -2.851318 -0.614367 -0.000000
v -2.801159 -0.622345 -0.000000
v -2.771332 -0.663453 -0.000000
v -2.779309 -0.713612 -0.000000
v -2.820418 -0.743439 -0.000000
v -2.870577 -0.735462 -0.000000
v -2.900404 -0.694353 -2.997630
v -2.892426 -0.644194 -2.997630
v -2.851318 -0.614367 -2.997630
v -2.801158 -0.622344 -2.997630
v -2.771332 -0.663453 -2.997630
v -2.779309 -0.713612 -2.997630
v -2.820418 -0.743439 -2.997630
v -2.870577 -0.735461 -2.997630
v -2.821048 -0.967551 -0.000000
v -2.817886 -0.916860 -0.000000
v -2.779806 -0.883252 -0.000000
v -2.729115 -0.886414 -0.000000
v -2.695508 -0.924494 -0.000000
v -2.698669 -0.975185 -0.000000
v -2.736749 -1.008793 -0.000000
v -2.787440 -1.005631 -0.000000
v -2.821048 -0.967551 -2.997630
v -2.817886 -0.916860 -2.997630
v -2.779806 -0.883252 -2.997630
v -2.729115 -0.886414 -2.997630
v -2.695507 -0.924494 -2.997630
v -2.698669 -0.975184 -2.997630
v -2.736749 -1.008792 -2.997630
v -2.787440 -1.005631 -2.997630
v -2.716023 -1.231946 -0.000000
v -2.717705 -1.181184 -0.000000
v -2.683001 -1.144101 -0.000000
v -2.632239 -1.142418 -0.000000
v -2.595156 -1.177122 -0.000000
v -2.593473 -1.227884 -0.000000
v -2.628178 -1.264967 -0.000000
v -2.678939 -1.266650 -0.000000
v -2.716022 -1.231945 -2.997630
v -2.717705 -1.181184 -2.997630
v -2.683001 -1.144100 -2.997630
v -2.632239 -1.142418 -2.997630
v -2.595155 -1.177122 -2.997630
v -2.593473 -1.227883 -2.997630
v -2.628177 -1.264967 -2.997630
v -2.678939 -1.266649 -2.997630
v -2.586283 -1.485130 -0.000000
v -2.592794 -1.434760 -0.000000
v -2.561781 -1.394538 -0.000000
v -2.511411 -1.388027 -0.000000
v -2.471189 -1.419039 -0.000000
v -2.464678 -1.469410 -0.000000
v -2.495691 -1.509631 -0.000000
v -2.546062 -1.516143 -0.000000
v -2.586283 -1.485129 -2.997630
v -2.592794 -1.434759 -2.997630
v -2.561781 -1.394538 -2.997630
v -2.511411 -1.388026 -2.997630
v -2.471189 -1.419039 -2.997630
v -2.464678 -1.469409 -2.997630
v -2.495691 -1.509631 -2.997630
v -2.546061 -1.516142 -2.997630
vn -0.9725 -0.2328 -0.0000
vn -0.8523 0.5230 -0.0000
vn -0.2328 0.9725 -0.0000
vn 0.5230 0.8523 -0.0000
vn 0.9725 0.2328 -0.0000
vn 0.8523 -0.5230 -0.0000
vn 0.2328 -0.9725 -0.0000
vn -0.5230 -0.8523 -0.0000
vn -0.9459 -0.3244 -0.0000
vn -0.8983 0.4395 -0.0000
vn -0.3244 0.9459 -0.0000
vn 0.4395 0.8983 -0.0000
vn 0.9459 0.3244 -0.0000
vn 0.8983 -0.4395 -0.0000
vn 0.3244 -0.9459 -0.0000
vn -0.4395 -0.8983 -0.0000
vn -0.9107 -0.4131 -0.0000
vn -0.9360 0.3519 -0.0000
vn -0.4131 0.9107 -0.0000
vn 0.3519 0.9360 -0.0000
vn 0.9107 0.4131 -0.0000
vn 0.9360 -0.3519 -0.0000
vn 0.4131 -0.9107 -0.0000
vn -0.3519 -0.9360 -0.0000
vn -0.8672 -0.4980 -0.0000
vn -0.9653 0.2611 -0.0000
vn -0.4980 0.8672 -0.0000
vn 0.2611 0.9653 -0.0000
vn 0.8672 0.4980 -0.0000
vn 0.9653 -0.2611 -0.0000
vn 0.4980 -0.8672 -0.0000
vn -0.2611 -0.9653 -0.0000
vt 1.000000 1.000000
vt 0.875000 1.000000
vt 0.875000 0.750000
vt 1.000000 0.750000
vt 0.125000 1.000000
vt 0.000000 1.000000
vt 0.000000 0.750000
vt 0.125000 0.750000
vt 0.250000 1.000000
vt 0.250000 0.750000
vt 0.375000 1.000000
vt 0.375000 0.750000
vt 0.500000 1.000000
vt 0.500000 0.750000
vt 0.625000 1.000000
vt 0.625000 0.750000
vt 0.750000 1.000000
vt 0.750000 0.750000
s 1
usemtl 
f 1/1/1 2/2/2 10/3/2 9/4/1
f 8/5/8 1/6/1 9/7/1 16/8/8
f 7/9/7 8/5/8 16/8/8 15/10/7
f 6/11/6 7/9/7 15/10/7 14/12/6
f 5/13/5 6/11/6 14/12/6 13/14/5
f 4/15/4 5/13/5 13/14/5 12/16/4
f 3/17/3 4/15/4 12/16/4 11/18/3
f 2/2/2 3/17/3 11/18/3 10/3/2
f 17/1/9 18/2/10 26/3/10 25/4/9
f 24/5/16 17/6/9 25/7/9 32/8/16
f 23/9/15 24/5/16 32/8/16 31/10/15
f 22/11/14 23/9/15 31/10/15 30/12/14
f 21/13/13 22/11/14 30/12/14 29/14/13
f 20/15/12 21/13/13 29/14/13 28/16/12
f 19/17/11 20/15/12 28/16/12 27/18/11
f 18/2/10 19/17/11 27/18/11 26/3/10
f 33/1/17 34/2/18 42/3/18 41/4/17
f 40/5/24 33/6/17 41/7/17 48/8/24
f 39/9/23 40/5/24 48/8/24 47/10/23
f 38/11/22 39/9/23 47/10/23 46/12/22
f 37/13/21 38/11/22 46/12/22 45/14/21
f 36/15/20 37/13/21 45/14/21 44/16/20
f 35/17/19 36/15/20 44/16/20 43/18/19
f 34/2/18 35/17/19 43/18/19 42/3/18
f 49/1/25 50/2/26 58/3/26 57/4/25
f 56/5/32 49/6/25 57/7/25 64/8/32
f 55/9/31 56/5/32 64/8/32 63/10/31
f 54/11/30 55/9/31 63/10/31 62/12/30
f 53/13/29 54/11/30 62/12/30 61/14/29
f 52/15/28 53/13/29 61/14/29 60/16/28
f 51/17/27 52/15/28 60/16/28 59/18/27
f 50/2/26 51/17/27 59/18/27 58/3/26
o Cube.004
v -3.080478 -0.441932 -2.863878
v -2.801126 -0.575763 -2.863878
v -3.080478 -0.441932 -3.131024
v -2.801126 -0.575763 -3.131024
v -2.522760 -1.820044 -2.863878
v -2.415112 -1.529595 -2.863878
v -2.522760 -1.820044 -3.131024
v -2.415112 -1.529595 -3.131024
vn 0.4321 0.9018 -0.0000
vn -0.0000 -0.0000 -1.0000
vn 0.9377 -0.3475 -0.0000
vn -0.0000 -0.0000 1.0000
vn -0.9270 -0.3751 -0.0000
vn 0.9270 0.3751 -0.0000
vt 0.375000 0.000000
vt 0.625000 0.000000
vt 0.625000 0.250000
vt 0.375000 0.250000
vt 0.625000 0.500000
vt 0.375000 0.500000
vt 0.625000 0.750000
vt 0.375000 0.750000
vt 0.625000 1.000000
vt 0.375000 1.000000
vt 0.125000 0.500000
vt 0.125000 0.750000
vt 0.875000 0.500000
vt 0.875000 0.750000
s 0
usemtl 
f 65/19/33 66/20/33 68/21/33 67/22/33
f 67/22/34 68/21/34 72/23/34 71/24/34
f 71/24/35 72/23/35 70/25/35 69/26/35
f 69/26/36 70/25/36 66/27/36 65/28/36
f 67/29/37 71/24/37 69/26/37 65/30/37
f 72/23/38 68/31/38 66/32/38 70/25/38
