# Blender 5.0.1
# www.blender.org
mtllib Caños_1_Start.mtl
o Caños_1.002
v -2.900403 -0.694352 -5.995260
v -2.900404 -0.694353 -2.926366
v -2.892426 -0.644193 -5.995260
v -2.892426 -0.644194 -2.926366
v -2.851317 -0.614366 -5.995260
v -2.851318 -0.614367 -2.926366
v -2.801158 -0.622344 -5.995260
v -2.801159 -0.622345 -2.926365
v -2.771331 -0.663452 -5.995260
v -2.771332 -0.663453 -2.926366
v -2.779309 -0.713611 -5.995260
v -2.779310 -0.713612 -2.926366
v -2.820418 -0.743438 -5.995260
v -2.820418 -0.743439 -2.926366
v -2.870576 -0.735461 -5.995260
v -2.870577 -0.735462 -2.926366
v -2.821047 -0.967550 -5.995260
v -2.821048 -0.967551 -2.926366
v -2.817886 -0.916859 -5.995260
v -2.817886 -0.916860 -2.926366
v -2.779806 -0.883251 -5.995260
v -2.779806 -0.883252 -2.926366
v -2.729115 -0.886413 -5.995260
v -2.729115 -0.886414 -2.926366
v -2.695507 -0.924493 -5.995260
v -2.695508 -0.924494 -2.926366
v -2.698669 -0.975184 -5.995260
v -2.698669 -0.975185 -2.926366
v -2.736748 -1.008792 -5.995260
v -2.736749 -1.008793 -2.926366
v -2.787440 -1.005630 -5.995260
v -2.787440 -1.005631 -2.926366
v -2.716022 -1.231945 -5.995260
v -2.716023 -1.231946 -2.926366
v -2.717705 -1.181183 -5.995260
v -2.717705 -1.181184 -2.926366
v -2.683000 -1.144100 -5.995260
v -2.683001 -1.144101 -2.926366
v -2.632239 -1.142417 -5.995260
v -2.632240 -1.142418 -2.926366
v -2.595155 -1.177121 -5.995260
v -2.595156 -1.177122 -2.926366
v -2.593473 -1.227883 -5.995260
v -2.593473 -1.227884 -2.926366
v -2.628177 -1.264966 -5.995260
v -2.628177 -1.264967 -2.926366
v -2.678939 -1.266649 -5.995260
v -2.678939 -1.266650 -2.926366
v -2.586282 -1.485129 -5.995260
v -2.586283 -1.485130 -2.926366
v -2.592794 -1.434759 -5.995260
v -2.592794 -1.434760 -2.926366
v -2.561781 -1.394537 -5.995260
v -2.561781 -1.394538 -2.926366
v -2.511410 -1.388026 -5.995260
v -2.511411 -1.388027 -2.926366
v -2.471189 -1.419039 -5.995260
v -2.471189 -1.419039 -2.926366
v -2.464678 -1.469409 -5.995260
v -2.464678 -1.469410 -2.926366
v -2.495691 -1.509630 -5.995260
v -2.495691 -1.509631 -2.926366
v -2.546061 -1.516142 -5.995260
v -2.546062 -1.516143 -2.926366
vn -0.9725 -0.2328 -0.0000
vn -0.8523 0.5230 -0.0000
vn -0.2328 0.9725 -0.0000
vn 0.5230 0.8523 -0.0000
vn 0.9725 0.2328 -0.0000
vn 0.8523 -0.5230 -0.0000
vn 0.2328 -0.9725 -0.0000
vn -0.5230 -0.8523 -0.0000
vn -0.9459 -0.3244 -0.0000
vn -0.8983 0.4395 -0.0000
vn -0.3244 0.9459 -0.0000
vn 0.4395 0.8983 -0.0000
vn 0.9459 0.3244 -0.0000
vn 0.8983 -0.4395 -0.0000
vn 0.3244 -0.9459 -0.0000
vn -0.4395 -0.8983 -0.0000
vn -0.9107 -0.4131 -0.0000
vn -0.9360 0.3519 -0.0000
vn -0.4131 0.9107 -0.0000
vn 0.3519 0.9360 -0.0000
vn 0.9107 0.4131 -0.0000
vn 0.9360 -0.3519 -0.0000
vn 0.4131 -0.9107 -0.0000
vn -0.3519 -0.9360 -0.0000
vn -0.8672 -0.4980 -0.0000
vn -0.9653 0.2611 -0.0000
vn -0.4980 0.8672 -0.0000
vn 0.2611 0.9653 -0.0000
vn 0.8672 0.4980 -0.0000
vn 0.9653 -0.2611 -0.0000
vn 0.4980 -0.8672 -0.0000
vn -0.2611 -0.9653 -0.0000
vt 0.875000 1.000000
vt 0.750000 1.000000
vt 0.750000 0.500000
vt 0.875000 0.500000
vt 0.625000 1.000000
vt 0.625000 0.500000
vt 0.500000 1.000000
vt 0.500000 0.500000
vt 0.375000 1.000000
vt 0.375000 0.500000
vt 0.250000 1.000000
vt 0.250000 0.500000
vt 0.125000 1.000000
vt 0.125000 0.500000
vt 0.000000 1.000000
vt 0.000000 0.500000
vt 1.000000 1.000000
vt 1.000000 0.500000
s 1
usemtl 
f 4/1/2 6/2/3 5/3/3 3/4/2
f 6/2/3 8/5/4 7/6/4 5/3/3
f 8/5/4 10/7/5 9/8/5 7/6/4
f 10/7/5 12/9/6 11/10/6 9/8/5
f 12/9/6 14/11/7 13/12/7 11/10/6
f 14/11/7 16/13/8 15/14/8 13/12/7
f 16/13/8 2/15/1 1/16/1 15/14/8
f 2/17/1 4/1/2 3/4/2 1/18/1
f 20/1/10 22/2/11 21/3/11 19/4/10
f 22/2/11 24/5/12 23/6/12 21/3/11
f 24/5/12 26/7/13 25/8/13 23/6/12
f 26/7/13 28/9/14 27/10/14 25/8/13
f 28/9/14 30/11/15 29/12/15 27/10/14
f 30/11/15 32/13/16 31/14/16 29/12/15
f 32/13/16 18/15/9 17/16/9 31/14/16
f 18/17/9 20/1/10 19/4/10 17/18/9
f 36/1/18 38/2/19 37/3/19 35/4/18
f 38/2/19 40/5/20 39/6/20 37/3/19
f 40/5/20 42/7/21 41/8/21 39/6/20
f 42/7/21 44/9/22 43/10/22 41/8/21
f 44/9/22 46/11/23 45/12/23 43/10/22
f 46/11/23 48/13/24 47/14/24 45/12/23
f 48/13/24 34/15/17 33/16/17 47/14/24
f 34/17/17 36/1/18 35/4/18 33/18/17
f 52/1/26 54/2/27 53/3/27 51/4/26
f 54/2/27 56/5/28 55/6/28 53/3/27
f 56/5/28 58/7/29 57/8/29 55/6/28
f 58/7/29 60/9/30 59/10/30 57/8/29
f 60/9/30 62/11/31 61/12/31 59/10/30
f 62/11/31 64/13/32 63/14/32 61/12/31
f 64/13/32 50/15/25 49/16/25 63/14/32
f 50/17/25 52/1/26 51/4/26 49/18/25
o Cube.003
v -3.080478 -0.441932 -2.863878
v -2.801126 -0.575763 -2.863878
v -3.080478 -0.441932 -3.131024
v -2.801126 -0.575763 -3.131024
v -2.522760 -1.820044 -2.863878
v -2.415112 -1.529595 -2.863878
v -2.522760 -1.820044 -3.131024
v -2.415112 -1.529595 -3.131024
vn 0.4321 0.9018 -0.0000
vn -0.0000 -0.0000 -1.0000
vn 0.9377 -0.3475 -0.0000
vn -0.0000 -0.0000 1.0000
vn -0.9270 -0.3751 -0.0000
vn 0.9270 0.3751 -0.0000
vt 0.375000 0.000000
vt 0.625000 0.000000
vt 0.625000 0.250000
vt 0.375000 0.250000
vt 0.625000 0.500000
vt 0.375000 0.500000
vt 0.625000 0.750000
vt 0.375000 0.750000
vt 0.625000 1.000000
vt 0.375000 1.000000
vt 0.125000 0.500000
vt 0.125000 0.750000
vt 0.875000 0.500000
vt 0.875000 0.750000
s 0
usemtl 
f 65/19/33 66/20/33 68/21/33 67/22/33
f 67/22/34 68/21/34 72/23/34 71/24/34
f 71/24/35 72/23/35 70/25/35 69/26/35
f 69/26/36 70/25/36 66/27/36 65/28/36
f 67/29/37 71/24/37 69/26/37 65/30/37
f 72/23/38 68/31/38 66/32/38 70/25/38
