{
	"asset":{
		"generator":"Khronos glTF Blender I/O v5.0.21",
		"version":"2.0"
	},
	"scene":0,
	"scenes":[
		{
			"name":"Scene",
			"nodes":[
				0
			]
		}
	],
	"nodes":[
		{
			"mesh":0,
			"name":"Cylinder",
			"rotation":[
				0,
				0,
				-1,
				1.6292068494294654e-07
			]
		}
	],
	"meshes":[
		{
			"name":"Cylinder",
			"primitives":[
				{
					"attributes":{
						"POSITION":0,
						"NORMAL":1,
						"TEXCOORD_0":2
					},
					"indices":3
				}
			]
		}
	],
	"accessors":[
		{
			"bufferView":0,
			"componentType":5126,
			"count":765,
			"max":[
				3.0000052452087402,
				1.9073486328125e-06,
				2.999999761581421
			],
			"min":[
				-3.000004291534424,
				-14.939847946166992,
				-3.000000476837158
			],
			"type":"VEC3"
		},
		{
			"bufferView":1,
			"componentType":5126,
			"count":765,
			"type":"VEC3"
		},
		{
			"bufferView":2,
			"componentType":5126,
			"count":765,
			"type":"VEC2"
		},
		{
			"bufferView":3,
			"componentType":5123,
			"count":1152,
			"type":"SCALAR"
		}
	],
	"bufferViews":[
		{
			"buffer":0,
			"byteLength":9180,
			"byteOffset":0,
			"target":34962
		},
		{
			"buffer":0,
			"byteLength":9180,
			"byteOffset":9180,
			"target":34962
		},
		{
			"buffer":0,
			"byteLength":6120,
			"byteOffset":18360,
			"target":34962
		},
		{
			"buffer":0,
			"byteLength":2304,
			"byteOffset":24480,
			"target":34963
		}
	],
	"buffers":[
		{
			"byteLength":26784,
			"uri":"placeholder_Tubo.bin"
		}
	]
}
